<svg enable-background="new 0 0 256 256" height="512" viewBox="0 0 256 256" width="512" xmlns="http://www.w3.org/2000/svg"><path d="m250.293 93.938-24.27 87.803c-1.198 4.334-5.142 7.336-9.639 7.336h-116.866l-58.144-107.804h199.28c6.608 0 11.399 6.295 9.639 12.665z" fill="#44c7b6"/><circle cx="198.044" cy="213.147" fill="#87828e" r="13.206"/><circle cx="143.744" cy="213.147" fill="#87828e" r="13.206"/><path d="m151.247 224.01c-2.12 1.48-4.71 2.34-7.5 2.34-7.3 0-13.21-5.91-13.21-13.2 0-7.3 5.91-13.21 13.21-13.21 2.79 0 5.38.86 7.5 2.34-3.45 2.37-5.71 6.36-5.71 10.87s2.26 8.49 5.71 10.86z" fill="#a4a4a5"/><path d="m205.548 224.015c-2.12 1.48-4.71 2.34-7.5 2.34-7.3 0-13.21-5.91-13.21-13.2 0-7.3 5.91-13.21 13.21-13.21 2.79 0 5.38.86 7.5 2.34-3.45 2.37-5.71 6.36-5.71 10.87.001 4.51 2.261 8.49 5.71 10.86z" fill="#a4a4a5"/><circle cx="136.997" cy="71.765" fill="#ffe2e2" r="40.259"/><path d="m159.707 80.19-7.1 7.12-12.07 12.1c-.98.97-2.26 1.46-3.54 1.46s-2.56-.49-3.54-1.46l-12.07-12.1-7.1-7.12c-1.01-1.02-1.47-2.27-1.47-3.5 0-2.57 2-5.04 5.01-5.04h9.64v-24c0-2.76 2.24-5 5-5h9.06c2.76 0 5 2.24 5 5v24h9.64c4.45 0 6.68 5.38 3.54 8.54z" fill="#5fcdff"/><path d="m177.257 71.76c0 22.24-18.03 40.26-40.26 40.26-2.56 0-5.07-.24-7.5-.7 18.65-3.51 32.76-19.88 32.76-39.56 0-19.67-14.11-36.04-32.76-39.55 2.43-.46 4.94-.7 7.5-.7 22.23 0 40.26 18.02 40.26 40.25z" fill="#ffcfcf"/><path d="m144.497 111.32c-2.43.46-4.94.7-7.5.7-22.23 0-40.26-18.02-40.26-40.26 0-22.23 18.03-40.25 40.26-40.25 2.56 0 5.07.24 7.5.7-18.65 3.51-32.76 19.88-32.76 39.55 0 19.68 14.11 36.05 32.76 39.56z" fill="#ffefee"/><path d="m136.997 42.65v58.22c-1.28 0-2.56-.49-3.54-1.46l-12.07-12.1-7.1-7.12c-1.01-1.02-1.47-2.27-1.47-3.5 0-2.57 2-5.04 5.01-5.04h9.64v-24c0-2.76 2.24-5 5-5z" fill="#73d7f9"/><path d="m116.517 189.08h-17l-58.14-107.81h17z" fill="#4bdbc3"/><path d="m250.297 93.94-24.27 87.8c-1.2 4.33-5.15 7.34-9.64 7.34h-17c4.49 0 8.44-3.01 9.64-7.34l24.27-87.8c1.76-6.37-3.04-12.67-9.64-12.67h17c6.6 0 11.4 6.3 9.64 12.67z" fill="#3bb2a0"/><g fill="#5f266d"><path d="m240.657 76.34h-59.75c3.355-26.253-17.255-49.76-43.91-49.76-26.681 0-47.262 23.535-43.91 49.76h-49.34c-14.305-26.544 8.244 15.233-11.621-21.564-.686-1.27-2.071-2.1-3.52-2.1h-18.271c-4.962 0-9 4.038-9 9v6.018c0 4.962 4.038 9 9 9h6.913c5.285 0 5.292-8 0-8h-6.913c-.551 0-1-.449-1-1v-6.018c0-.551.449-1 1-1h15.871l.002.003h.01c16.289 30.172 62.844 116.508 79.18 146.8 2.89 5.39 8.5 8.74 14.63 8.74h6.98c1.81 7.57 8.63 13.2 16.74 13.2 8.1 0 14.92-5.63 16.73-13.2h20.83c1.81 7.57 8.63 13.2 16.74 13.2 8.1 0 14.92-5.63 16.73-13.2h15.17c5.288 0 5.285-8 0-8h-15.17c-1.81-7.57-8.63-13.21-16.73-13.21-8.11 0-14.93 5.64-16.74 13.21h-20.83c-1.81-7.57-8.63-13.21-16.73-13.21-8.11 0-14.93 5.64-16.74 13.21h-6.98c-3.18 0-6.08-1.73-7.58-4.53l-6.23-11.54h110.17c6.27 0 11.82-4.23 13.49-10.27 3.834-13.859 21.679-78.471 24.27-87.81 2.48-8.934-4.258-17.729-13.491-17.729zm-96.91 126.67c5.061 0 9.2 4.115 9.2 9.21 0 5.043-4.103 9.2-9.2 9.2s-9.21-4.152-9.21-9.2c0-5.027 4.089-9.21 9.21-9.21zm54.3 0c5.059 0 9.2 4.112 9.2 9.21 0 5.043-4.103 9.2-9.2 9.2-5.106 0-9.21-4.162-9.21-9.2 0-5.027 4.089-9.21 9.21-9.21zm42.61-118.67c3.425 0 6 2.82 6 5.98 0 1.075-.061 1.045-1.87 7.59h-13.62l-7.32-13.57zm-122.21 64.68h25.86l7.32 13.56h-25.87zm-11.63-21.55h25.87l7.31 13.55h-25.87zm-39.8-8-7.31-13.56h26.39l7.32 13.56h-26.39zm28.17-13.56h14.85c4.45 3.42 9.56 6.02 15.1 7.57h.01l3.23 5.99h-25.87zm41.81-71.33c22.16 0 39.248 19.851 35.84 41.76-2.606 17.245-17.606 30.75-35.84 30.75-18.07 0-33.21-13.342-35.84-30.75-3.407-21.898 13.668-41.76 35.84-41.76zm42.45 49.76 7.32 13.57h-14.78c3.12-4.03 5.57-8.61 7.16-13.57zm54.26 35.13h-26.22l-7.31-13.56h26.22zm-23.68 21.55h-25.96l-7.31-13.55h25.96zm-68.25-13.55h25.89l7.31 13.55h-25.89zm-6.7-12.42c7.755.369 15.831-1.405 23.02-5.32l5.25 9.74h-25.89zm63.32 4.42h-25.96l-7.31-13.56h25.96zm-45 29.55h25.89l7.32 13.56h-25.9zm34.98 0h25.97l7.31 13.56h-25.96zm39.84 8.86-4.78-8.86h7.22zm-9.1-16.86-7.31-13.55h24.81l-3.75 13.55zm21.06-26.42-4.69-8.69h7.09zm-25.42-30.26 7.32 13.57h-26.22l-7.32-13.57zm-119.91 0c1.59 4.96 4.04 9.54 7.16 13.57h-11.13l-7.32-13.57zm-20.38 0 7.32 13.57h-26.39l-7.32-13.57zm23.26 43.13 7.31 13.55h-26.39l-7.31-13.55zm11.63 21.55 7.31 13.56h-26.39-.01l-7.31-13.56zm-7.45 35.13-7.32-13.57h26.4l7.32 13.57zm35.49 0-7.32-13.57h25.86l7.32 13.57zm34.95 0-7.32-13.57h25.9l7.32 13.57zm49.82-4.4c-.72 2.59-3.09 4.4-5.78 4.4h-9.05l-7.32-13.57h24.68z"/><path d="m130.627 101.3c3.503 3.524 9.236 3.524 12.74 0 20.831-20.893 21.493-20.617 21.78-24.96.341-5.153-3.704-9.61-8.98-9.61h-5.64v-20c0-4.97-4.04-9-9-9h-9.06c-4.96 0-9 4.03-9 9v20h-5.64c-5.275 0-9.321 4.456-8.98 9.61.345 4.493.986 4.104 21.78 24.96zm-12.8-26.57h9.64c2.21 0 4-1.8 4-4v-24c0-.56.45-1 1-1h9.06c.55 0 1 .44 1 1v24c0 2.2 1.79 4 4 4h9.64c.912 0 1.278 1.032.78 1.61-.05.076-19.176 19.246-19.24 19.31-.388.388-1.032.388-1.42 0l-11.28-11.31c-.079-.079-7.898-7.907-7.96-8-.498-.578-.132-1.61.78-1.61z"/></g></svg>